BOOT CAMP DVDrip

Format                           : AVI
Format/Info                      : Audio Video Interleave
File size                        : 440 MiB
Duration                         : 1h 35mn
Overall bit rate                 : 647 Kbps
Writing application              : MEncoder Sherpya-SVN-r27811-4.2.5
Writing library                  : MPlayer

Video
ID                               : 0
Format                           : MPEG-4 Visual
Format profile                   : AdvancedSimple@L5
Format settings, BVOP            : No
Format settings, QPel            : No
Format settings, GMC             : No warppoints
Format settings, Matrix          : Default (H.263)
Codec ID                         : XVID
Codec ID/Hint                    : XviD
Duration                         : 1h 35mn
Bit rate                         : 512 Kbps
Width                            : 480 pixels
Height                           : 234 pixels
Display aspect ratio             : 2.051
Frame rate                       : 25.000 fps
Resolution                       : 24 bits
Colorimetry                      : 4:2:0
Scan type                        : Progressive
Bits/(Pixel*Frame)               : 0.182
Stream size                      : 348 MiB (79%)
Writing library                  : XviD 1.1.2 (UTC 2006-11-01)

Audio
ID                               : 1
Format                           : MPEG Audio
Format version                   : Version 1
Format profile                   : Layer 3
Codec ID                         : 55
Codec ID/Hint                    : MP3
Duration                         : 1h 35mn
Bit rate mode                    : Variable
Bit rate                         : 123 Kbps
Channel(s)                       : 2 channels
Sampling rate                    : 44.1 KHz
Resolution                       : 16 bits
Stream size                      : 83.3 MiB (19%)
Alignment                        : Aligned on interleaves
Interleave, duration             : 26 ms (0.65 video frame)
Interleave, preload duration     : 500 ms
Writing library                  : LAME3.98

This film is the story of a group of unruly teenagers whose parents send them to a rehabilitation Boot camp (correctional) to turn them around. The camp collects each child individually, then delivers them to the boot camp facility on a remote island in Fiji. There are no walls to stop the teenagers from leaving, but escape is impractical due to the surrounding sea. On arriving at the camp, the teenagers are forced to wear cuffs with sensors around their ankles — if they attempt to escape, security will be alerted.

Dr. Hail (Peter Stormare), who runs the camp, forces the teens to work constantly. He has them clean the camp, grow plants, and has them rebuild the camp after it was damaged in a storm. Campers are required to wear color coded t-shirts. First, new arrivals are given black t-shirts. They progress to yellow and then white. The teens earn a white shirt once they have been "corrected." They do not do work; they become staff members and abuse the other inmates and monitor their work. Among the staff is an ex-Army recruit. He is very tough towards the inmates and makes deals with girls in exchange for sex.
 
http://www.imdb.com/title/tt0870204/

PLEASE SEED AND ENJOY THANKS

screens
 
http://img14.imageshack.us/img14/2913/vlcsnap2010020122h19m22.png 
http://img688.imageshack.us/img688/5102/vlcsnap2010020122h19m36.png 
http://img13.imageshack.us/img13/6746/vlcsnap2010020122h19m53.png 
http://img29.imageshack.us/img29/493/vlcsnap2010020122h20m42.png